<svg id="Calque_2" data-name="Calque 2" xmlns="http://www.w3.org/2000/svg" xmlns:xlink="http://www.w3.org/1999/xlink" viewBox="0 0 91.2 85.08"><defs><style>.cls-1{fill:none;}.cls-2{clip-path:url(#clip-path);}.cls-3{font-size:7.72px;fill:#7f848b;font-family:DINPro-Regular, DINPro;letter-spacing:0.2em;}.cls-4{letter-spacing:0.2em;}.cls-5{letter-spacing:0.14em;}.cls-6{letter-spacing:0.2em;}.cls-7{letter-spacing:0.2em;}.cls-8{letter-spacing:0.44em;}.cls-9{letter-spacing:0.19em;}.cls-10{letter-spacing:0.2em;}.cls-11{letter-spacing:0.19em;}.cls-12{letter-spacing:0em;}.cls-13{fill:#131e29;}.cls-14{fill:#7abbb1;}.cls-15{fill:#18988b;}</style><clipPath id="clip-path"><rect class="cls-1" x="0.83" y="0.63" width="88.78" height="84.02"/></clipPath></defs><g class="cls-2"><text class="cls-3" transform="translate(0.83 84.6)">C<tspan class="cls-4" x="6.46" y="0">RE</tspan><tspan class="cls-5" x="19.24" y="0">A</tspan><tspan class="cls-6" x="25.03" y="0">T</tspan><tspan class="cls-7" x="30.81" y="0">I</tspan><tspan class="cls-6" x="34.52" y="0">VE</tspan><tspan class="cls-8" x="46.46" y="0"> </tspan><tspan class="cls-9" x="51.8" y="0">A</tspan><tspan class="cls-6" x="57.98" y="0">GE</tspan><tspan class="cls-10" x="70.72" y="0">N</tspan><tspan class="cls-11" x="77.91" y="0">C</tspan><tspan class="cls-12" x="84.29" y="0">Y</tspan></text><path class="cls-13" d="M84.75,63a5.86,5.86,0,0,1-.89,3.57,3.54,3.54,0,0,1-3,1.14q-4.32,0-4.32-4.71v-17h13V41h-13V28.19H71V63c0,3.32.78,5.78,2.36,7.4s4.06,2.42,7.46,2.42,5.62-.8,6.88-2.42,1.9-4.08,1.9-7.4V57.39H84.75ZM67.12,50.71V49.14a8.19,8.19,0,0,0-2.39-6.22c-1.59-1.53-4-2.3-7.3-2.3q-4.59,0-7,2a6.46,6.46,0,0,0-2.46,5.28v1.57a7.3,7.3,0,0,0,.62,3A6.83,6.83,0,0,0,50.75,55c.48.35,1.17.78,2.06,1.31l2.69,1.54c.89.5,1.7.93,2.42,1.31l1.21.62a5.86,5.86,0,0,1,2.26,1.83,3.6,3.6,0,0,1,.49,1.84v1.24a3.2,3.2,0,0,1-1,2.62,5.3,5.3,0,0,1-3.35.85,5.23,5.23,0,0,1-3.5-.91,3.62,3.62,0,0,1-1-2.82v-2.1H47.6v1.9A8.25,8.25,0,0,0,50,70.66q2.4,2.19,7.77,2.19c3.36,0,5.82-.67,7.37-2s2.32-3.4,2.32-6.15V63.22a7,7,0,0,0-.88-3.8,8.9,8.9,0,0,0-2.52-2.48A20.12,20.12,0,0,0,60,54.77a27.87,27.87,0,0,1-4.39-2.22A6.91,6.91,0,0,1,53.73,51a2.76,2.76,0,0,1-.43-1.61v-1q0-3.08,4.33-3.08a4.64,4.64,0,0,1,3.21.92,3.42,3.42,0,0,1,1,2.62v1.83Zm-23,21.75V48q0-7.34-9.37-7.34c-3.19,0-5.66.65-7.43,1.94a6.77,6.77,0,0,0-2.65,5.86v2.69H30v-2q0-3.52,4.46-3.53c2.7,0,4.06,1.07,4.06,3.21v1.31A1.79,1.79,0,0,1,38,51.37a4.32,4.32,0,0,1-1.37.88,16,16,0,0,1-1.93.66c-.73.19-1.44.4-2.13.62a26.83,26.83,0,0,0-3.9,1.41,8.68,8.68,0,0,0-2.59,1.77,6,6,0,0,0-1.44,2.49,11.69,11.69,0,0,0-.46,3.5v3.14A7.8,7.8,0,0,0,25.72,71q1.58,1.9,5.31,1.9a7.69,7.69,0,0,0,4.75-1.27,10.45,10.45,0,0,0,2.72-3.12h.26l.2,4Zm-5.57-8.32A6.12,6.12,0,0,1,36.63,67a5.15,5.15,0,0,1-3.18.91q-3.74,0-3.73-3.34V61.72a4.71,4.71,0,0,1,.78-2.88A7.14,7.14,0,0,1,34,56.94l2.69-.79a6.11,6.11,0,0,0,1.83-1ZM15.24,54.05H6.59V50.32c0-3.15,1.45-4.72,4.33-4.72s4.32,1.57,4.32,4.72Zm5.57,7.54H15.24v1.57q0,4.71-4.39,4.71T6.59,63.16V58.25H20.81v-7.8q0-9.83-9.89-9.83-5,0-7.44,2.43t-2.39,7.4V63q0,5,2.39,7.43c1.6,1.6,4.05,2.39,7.37,2.39q10,0,10-9.82Z"/><path class="cls-14" d="M69.39,26.75a7.35,7.35,0,0,1-1.09,4.33,4,4,0,0,1-3.42,1.52,3.81,3.81,0,0,1-3.41-1.55,8,8,0,0,1-1-4.42V14.33H76.58V8.73H60.43V.63h-7.6V27.42a16.29,16.29,0,0,0,.65,4.63,10.15,10.15,0,0,0,2.11,3.84,10.45,10.45,0,0,0,3.71,2.62,13.78,13.78,0,0,0,5.46,1,13.23,13.23,0,0,0,5.32-1,10.21,10.21,0,0,0,3.68-2.65A10.65,10.65,0,0,0,75.89,32a14.81,14.81,0,0,0,.69-4.54V23.32H69.39ZM40.27,38.69V23.1q0-7.25,7.06-7.25a11.91,11.91,0,0,1,2.14.19V7.94h-1a21.77,21.77,0,0,0-2.31.12,7.73,7.73,0,0,0-2.23.58A8.39,8.39,0,0,0,41.78,10a9.94,9.94,0,0,0-2,2.37V8.73H32.55v30Zm-13.2,0V19.75a18,18,0,0,0-.65-5A8.86,8.86,0,0,0,24.31,11a9.46,9.46,0,0,0-3.86-2.28,18.74,18.74,0,0,0-5.84-.79,20,20,0,0,0-5.94.76,10.31,10.31,0,0,0-3.95,2.16,8.08,8.08,0,0,0-2.19,3.35,13.77,13.77,0,0,0-.75,4.26H9a5.69,5.69,0,0,1,1.45-3.22A5.07,5.07,0,0,1,14.25,14a6.79,6.79,0,0,1,3.59.82,2.56,2.56,0,0,1,1.34,2.28,2.6,2.6,0,0,1-1,2.29,10.29,10.29,0,0,1-3.92,1.12c-1.94.29-3.73.6-5.37.95A13.12,13.12,0,0,0,4.63,23.1a7.79,7.79,0,0,0-2.79,3,11.17,11.17,0,0,0-1,5.15A7.89,7.89,0,0,0,3.18,37.2q2.34,2.28,7.39,2.28a13.4,13.4,0,0,0,5.22-.94A9.45,9.45,0,0,0,19.41,36a12.25,12.25,0,0,0,.48,2.68ZM19.29,27.3a5.74,5.74,0,0,1-.56,2.53,7.17,7.17,0,0,1-1.48,2.07,6.84,6.84,0,0,1-2.2,1.4,7.18,7.18,0,0,1-2.76.52q-3.73,0-3.74-3.35a3.69,3.69,0,0,1,1.25-3,11.06,11.06,0,0,1,4.57-1.7A30.87,30.87,0,0,0,17.63,25a4.15,4.15,0,0,0,1.72-1Z"/><rect class="cls-15" x="79.85" y="8.69" width="9.77" height="9.77" rx="2.04"/></g></svg>